<svg width="47" height="43" viewBox="0 0 47 43" fill="none" xmlns="http://www.w3.org/2000/svg">
<path d="M20.1439 39.3679C20.4119 38.6636 20.5396 37.9118 20.5197 37.1565C20.5606 35.0632 21.1087 33.0128 22.115 31.1884C23.1189 29.3671 24.5504 27.829 26.281 26.7123C26.9217 26.3615 27.4861 25.8816 27.9399 25.3017C28.3937 24.7218 28.7276 24.0539 28.9213 23.3385C29.115 22.6231 29.1645 21.875 29.0668 21.1395C28.9691 20.404 28.7262 19.6964 28.3529 19.0595C27.8542 18.2087 27.1365 17.5112 26.281 17.0472C25.7905 16.6998 25.3194 16.3258 24.8703 15.925L23.7447 14.8C21.6824 12.5868 20.5258 9.65321 20.5115 6.59872C20.5328 5.84323 20.4056 5.09104 20.1376 4.38652C19.8695 3.682 19.4659 3.03942 18.9506 2.49669C18.4376 1.95456 17.8229 1.52349 17.1431 1.22921C16.4634 0.93493 15.7325 0.783472 14.9941 0.783875C14.2561 0.784938 13.5259 0.937068 12.8465 1.23127C12.1672 1.52547 11.5525 1.95576 11.0389 2.49669C10.5246 3.04038 10.1216 3.68332 9.85358 4.38791C9.58557 5.0925 9.45792 5.84457 9.47809 6.60013C9.49012 7.5809 9.75476 8.54117 10.2454 9.3845C10.7344 10.2264 11.4325 10.9216 12.2692 11.3997C15.6567 13.5878 18.0138 17.7714 18.0138 21.8861C18.0055 24.914 16.871 27.8258 14.8398 30.0325L12.2774 32.3556C11.4412 32.8323 10.7427 33.527 10.2523 34.3708C9.7605 35.2131 9.49738 36.175 9.48498 37.1565C9.4639 37.912 9.59115 38.6641 9.85921 39.3686C10.1273 40.0731 10.5307 40.7157 11.0458 41.2586C11.5589 41.8006 12.1736 42.2315 12.8534 42.5258C13.5332 42.8201 14.264 42.9716 15.0024 42.9714C15.7405 42.9705 16.4711 42.8185 17.1507 42.5243C17.8303 42.2301 18.4451 41.7997 18.9589 41.2586C19.473 40.715 19.8759 40.0723 20.1439 39.3679Z" fill="#8DA2FB"/>
<path d="M27.6269 9.72763C27.0194 8.79669 26.6956 7.70122 26.6956 6.58184C26.6966 5.0824 27.2784 3.64419 28.3143 2.58106C29.215 1.65609 30.403 1.0799 31.6744 0.951344C32.9458 0.822793 34.2214 1.1499 35.2823 1.87653C36.1911 2.49937 36.8987 3.38313 37.3157 4.41622C37.7328 5.45048 37.8416 6.58736 37.6287 7.68448C37.4157 8.78161 36.8904 9.79023 36.1186 10.584C35.349 11.3756 34.3659 11.9152 33.2946 12.1339C32.2233 12.3526 31.1124 12.2404 30.1039 11.8117C29.0943 11.3826 28.2323 10.6573 27.6269 9.72763Z" fill="#8DA2FB"/>
<path d="M29.1492 32.4498C30.057 31.8282 31.1247 31.4964 32.2157 31.4964V31.4936C32.941 31.4945 33.659 31.6415 34.3285 31.9262C34.998 32.211 35.6058 32.6279 36.1172 33.1529C37.0208 34.0809 37.5829 35.2989 37.7084 36.601C37.8339 37.9031 37.5151 39.2096 36.806 40.2995C36.2006 41.2304 35.3381 41.9567 34.3276 42.3864C33.3191 42.8151 32.2082 42.9272 31.1369 42.7086C30.0656 42.4899 29.0825 41.9503 28.3129 41.1587C27.5408 40.3648 27.0153 39.3559 26.8024 38.2585C26.5894 37.1611 26.6984 36.0239 27.1158 34.9895C27.5329 33.9565 28.2404 33.0727 29.1492 32.4498Z" fill="#8DA2FB"/>
<path d="M45.4092 18.7248C46.0152 19.6554 46.3389 20.749 46.3391 21.868C46.3382 23.3678 45.7563 24.8064 44.7204 25.87C44.209 26.3949 43.6011 26.8116 42.9316 27.0963C42.2622 27.3811 41.5443 27.5282 40.819 27.5293C39.7267 27.5294 38.6592 27.1974 37.7524 26.5759C36.8436 25.9531 36.1361 25.0693 35.719 24.0362C35.3017 23.0018 35.1927 21.8646 35.4056 20.7672C35.6186 19.6698 36.144 18.6609 36.9162 17.867C37.6858 17.0751 38.6693 16.5354 39.7408 16.3167C40.8124 16.098 41.9235 16.2103 42.9323 16.6393C43.942 17.0688 44.8041 17.7947 45.4092 18.7248Z" fill="#8DA2FB"/>
<path d="M3.33119 17.1625C4.23904 16.5409 5.30532 16.209 6.39778 16.209C7.12288 16.2106 7.84057 16.3581 8.50978 16.6431C9.179 16.928 9.7866 17.3449 10.2978 17.8698C11.201 18.7974 11.7628 20.0149 11.8883 21.3165C12.0138 22.6181 11.6953 23.924 10.9866 25.0136C10.3814 25.9437 9.51935 26.6695 8.50967 27.099C7.50076 27.5256 6.39043 27.6367 5.31958 27.4181C4.24873 27.1996 3.26561 26.6612 2.49497 25.8714C1.7231 25.0776 1.19779 24.0689 0.984843 22.9718C0.771894 21.8747 0.880764 20.7378 1.29782 19.7036C1.71468 18.67 2.42226 17.7857 3.33119 17.1625Z" fill="#8DA2FB"/>
</svg>
